<?xml version="1.0"?>
<svg version="1.1" xmlns="http://www.w3.org/2000/svg" width="400px" height="40px" style=""><path fill="#1e79ba" d="M32.924,33.2l1.364,0l0-9.328q0-1.848,1.408-3.3q1.408-1.408,3.256-1.408t3.3,1.408q1.408,1.452,1.408,3.3l0,9.328l1.364,0l0-9.328q0-2.508-1.782-4.29t-4.29-1.782q-2.464,0-4.246,1.782t-1.782,4.29l0,9.328z M49.79448,28.976q0-1.056,0.748-1.914q0.748-0.902,1.804-0.902l0.286,0l4.114,0l0-1.364l-4.114,0l-0.286,0q-1.122-0.22-1.837-0.968t-0.715-1.782q0-1.298,0.759-2.057t2.079-0.759l7.48,0l0-1.386l-7.48,0q-1.694,0-2.948,1.254q-1.254,1.21-1.254,2.948q0,1.1,0.418,2.002t1.232,1.298q-0.814,0.594-1.232,1.562t-0.418,2.068q0,1.716,1.254,2.926q1.276,1.276,2.948,1.276l7.48,0l0-1.452l-7.48,0q-1.32,0-2.079-0.748t-0.759-2.002z M75.04696,17.756l-1.386,0l0,7.04l-9.284,0l0-7.04l-1.386,0l0,15.444l1.386,0l0-7.018l9.284,0l0,7.018l1.386,0l0-15.444z M84.28344,17.712q-2.464,0-4.136,1.782q-1.65,1.76-1.65,4.29l0,9.416l1.386,0l0-6.908l8.844,0l0,6.908l1.386,0l0-9.416q0-2.53-1.65-4.29q-1.716-1.782-4.18-1.782z M88.72744,24.928l-8.844,0l0-1.144q0-1.892,1.276-3.278q1.298-1.408,3.124-1.408t3.168,1.408q1.276,1.386,1.276,3.278l0,1.144z M104.4064,19.406l8.294,0l0-1.672l-8.294,0q-1.628,0-2.728,1.276q-1.122,1.298-1.122,3.146q0,1.672,1.122,2.904q1.1,1.254,2.728,1.254l2.2,0l2.244,0q0.99,0,1.76,0.836q0.726,0.88,0.726,1.914q0,1.232-0.715,2.002t-1.771,0.77l-8.294,0l0,1.364l8.294,0q1.65,0,2.75-1.144t1.1-2.992q0-1.672-1.1-2.904q-1.122-1.232-2.75-1.232l-2.244,0l-2.2,0q-1.012,0-1.738-0.88q-0.748-0.814-0.748-1.892q0-1.232,0.715-1.991t1.771-0.759z M127.98688,17.756l-1.386,0l0,7.04l-9.284,0l0-7.04l-1.386,0l0,15.444l1.386,0l0-7.018l9.284,0l0,7.018l1.386,0l0-15.444z M131.54736,33.222l1.386,0l0-15.466l-1.386,0l0,15.466z M136.33984,33.2l1.364,0l0-9.328q0-1.848,1.408-3.3q1.408-1.408,3.256-1.408t3.3,1.408q1.408,1.452,1.408,3.3l0,9.328l1.364,0l0-9.328q0-2.508-1.782-4.29t-4.29-1.782q-2.464,0-4.246,1.782t-1.782,4.29l0,9.328z M156.62032,17.778l-3.366,0l-0.836,0l-0.55,0l0,15.422l0.55,0l0.836,0l3.366,0q3.212,0,5.5-2.244q2.354-2.31,2.354-5.61q0-3.124-2.354-5.368q-2.31-2.2-5.5-2.2z M156.62032,31.814l-3.366,0l0-12.606l3.366,0q2.75,0,4.62,1.804q1.848,1.804,1.848,4.334q0,2.75-1.848,4.598q-1.87,1.87-4.62,1.87z M168.8928,28.976q0-1.056,0.748-1.914q0.748-0.902,1.804-0.902l0.286,0l4.114,0l0-1.364l-4.114,0l-0.286,0q-1.122-0.22-1.837-0.968t-0.715-1.782q0-1.298,0.759-2.057t2.079-0.759l7.48,0l0-1.386l-7.48,0q-1.694,0-2.948,1.254q-1.254,1.21-1.254,2.948q0,1.1,0.418,2.002t1.232,1.298q-0.814,0.594-1.232,1.562t-0.418,2.068q0,1.716,1.254,2.926q1.276,1.276,2.948,1.276l7.48,0l0-1.452l-7.48,0q-1.32,0-2.079-0.748t-0.759-2.002z"/><path fill="#" d=""/></svg>
