<?xml version="1.0"?>
<svg version="1.1" xmlns="http://www.w3.org/2000/svg" width="400px" height="200px" style="border: dashed 2px #aaa"><path fill="#" d="M61.6875,119.1875l-4.84375,0l0-18.8125l-6.203125,0l0-4.03125l17.25,0l0,4.03125l-6.203125,0l0,18.8125z M78.44953125,106.484375l1.5625,0q2.296875,0,3.390625-0.765625t1.09375-2.40625q0-1.625-1.1171875-2.3125t-3.4609375-0.6875l-1.46875,0l0,6.171875z M78.44953125,110.421875l0,8.765625l-4.84375,0l0-22.84375l6.65625,0q4.65625,0,6.890625,1.6953125t2.234375,5.1484375q0,2.015625-1.109375,3.5859375t-3.140625,2.4609375q5.15625,7.703125,6.71875,9.953125l-5.375,0l-5.453125-8.765625l-2.578125,0z M110.9146875,119.1875l-1.65625-5.4375l-8.328125,0l-1.65625,5.4375l-5.21875,0l8.0625-22.9375l5.921875,0l8.09375,22.9375l-5.21875,0z M108.1021875,109.6875q-2.296875-7.390625-2.5859375-8.359375t-0.4140625-1.53125q-0.515625,2-2.953125,9.890625l5.953125,0z M134.23921875,96.34375l4.890625,0l-7.765625,22.84375l-5.28125,0l-7.75-22.84375l4.890625,0l4.296875,13.59375q0.359375,1.203125,0.7421875,2.8046875t0.4765625,2.2265625q0.171875-1.4375,1.171875-5.03125z M157.360625,119.1875l-13.15625,0l0-22.84375l13.15625,0l0,3.96875l-8.3125,0l0,5.015625l7.734375,0l0,3.96875l-7.734375,0l0,5.890625l8.3125,0l0,4z M164.32578125,119.1875l0-22.84375l4.84375,0l0,18.84375l9.265625,0l0,4l-14.109375,0z"/><path fill="#" d=""/></svg>
